<?xml version="1.0" encoding="UTF-8" standalone="no"?>
<svg xmlns:dc="http://purl.org/dc/elements/1.1/" xmlns:cc="http://creativecommons.org/ns#" xmlns:rdf="http://www.w3.org/1999/02/22-rdf-syntax-ns#" xmlns:svg="http://www.w3.org/2000/svg" xmlns="http://www.w3.org/2000/svg" xmlns:sodipodi="http://sodipodi.sourceforge.net/DTD/sodipodi-0.dtd" xmlns:inkscape="http://www.inkscape.org/namespaces/inkscape" aria-hidden="true" focusable="false" data-prefix="fas" data-icon="map-marker-alt" class="svg-inline--fa fa-map-marker-alt fa-w-12" role="img" viewBox="0 0 384 512" version="1.1" id="svg4" sodipodi:docname="map-marker-alt-solid-del.svg" inkscape:version="1.0.1 (3bc2e813f5, 2020-09-07)">
  <metadata id="metadata10">
    <rdf:RDF>
      <cc:Work rdf:about="">
        <dc:format>image/svg+xml</dc:format>
        <dc:type rdf:resource="https://purl.org/dc/dcmitype/StillImage"/>
        <dc:title/>
      </cc:Work>
    </rdf:RDF>
  </metadata>
  <defs id="defs8">
    <inkscape:path-effect effect="skeletal" id="path-effect843" is_visible="true" lpeversion="1" pattern="M 0,5 C 0,2.24 2.24,0 5,0 7.76,0 10,2.24 10,5 10,7.76 7.76,10 5,10 2.24,10 0,7.76 0,5 Z" copytype="single_stretched" prop_scale="1" scale_y_rel="false" spacing="0" normal_offset="0" tang_offset="0" prop_units="false" vertical_pattern="false" hide_knot="false" fuse_tolerance="0"/>
    <inkscape:path-effect effect="skeletal" id="path-effect839" is_visible="true" lpeversion="1" pattern="M 0,5 C 0,2.24 2.24,0 5,0 7.76,0 10,2.24 10,5 10,7.76 7.76,10 5,10 2.24,10 0,7.76 0,5 Z" copytype="single_stretched" prop_scale="1" scale_y_rel="false" spacing="0" normal_offset="0" tang_offset="0" prop_units="false" vertical_pattern="false" hide_knot="false" fuse_tolerance="0"/>
  </defs>
  <sodipodi:namedview pagecolor="#ffffff" bordercolor="#666666" borderopacity="1" objecttolerance="10" gridtolerance="10" guidetolerance="10" inkscape:pageopacity="0" inkscape:pageshadow="2" inkscape:window-width="1920" inkscape:window-height="1001" id="namedview6" showgrid="false" showguides="true" inkscape:guide-bbox="true" inkscape:zoom="0.58529505" inkscape:cx="-95.302231" inkscape:cy="174.56947" inkscape:window-x="-9" inkscape:window-y="1341" inkscape:window-maximized="1" inkscape:current-layer="svg4" inkscape:document-rotation="0">
    <sodipodi:guide position="1159.5249,318.97241" orientation="0,-1" id="guide859"/>
  </sodipodi:namedview>
  <path id="path835" d="m 192.83815,77.735066 c -24.12092,0 -46.66222,6.761241 -65.83589,18.487421 l 48.31512,58.222133 c 5.48217,-1.9344 11.37654,-2.9964 17.52077,-2.9964 29.07918,0 52.65225,23.57308 52.65225,52.65226 0,9.61115 -2.58746,18.61271 -7.08543,26.36855 l 49.32678,59.44203 c 25.19077,-38.20019 31.47181,-55.5162 31.47181,-85.81058 0,-69.78991 -56.57551,-126.365414 -126.36541,-126.365414 z M 92.495491,127.29452 c -16.318586,21.28705 -26.02276,47.91121 -26.02276,76.80596 0,50.94962 17.750113,65.17752 113.378459,203.81025 6.27483,9.06475 19.69714,9.0654 25.97263,0 22.30373,-32.3338 40.01362,-57.40102 54.60743,-78.24439 l -60.85989,-73.34037 c -2.20507,0.28151 -4.45162,0.42676 -6.73321,0.42676 -29.07919,0 -52.65226,-23.57307 -52.65226,-52.65225 0,-5.67095 0.90671,-11.12745 2.56577,-16.24559 z" style="fill:#4c4c4e;fill-opacity:1;stroke-width:0.658153"/>
  <rect style="fill:#4c4c4e;fill-opacity:1;stroke:none;stroke-width:26.5548;stroke-linecap:round;stroke-miterlimit:4;stroke-dasharray:none;stroke-opacity:1;paint-order:stroke fill markers" id="rect866" width="482.13495" height="29.761412" x="51.19722" y="-28.211163" transform="matrix(0.63859403,0.76954381,-0.63859403,0.76954381,0,0)" ry="14.880706"/>
</svg>