<?xml version="1.0" encoding="UTF-8"?>
<svg id="Calque_2" xmlns="http://www.w3.org/2000/svg" viewBox="0 0 80 80">
  <defs>
    <style>
      .cls-1 {
        fill: none;
      }

      .cls-2 {
        fill: #76b442;
      }

      .cls-3 {
        fill: #fff;
      }

      .cls-4 {
        fill: #a6a7a9;
      }
    </style>
  </defs>
  <g id="OC-Logo">
    <rect class="cls-1" width="80" height="80"/>
    <path id="magnifying-glass" class="cls-2" d="M47.53,3.04c-13.78,0-24.99,11.21-24.99,24.99,0,6.83,2.76,13.03,7.22,17.54-.02.02-.04.04-.06.06l-21.59,26.71c-.99,1.22-.8,3.01.42,3.99s3.01.8,3.99-.42l21.59-26.71s.03-.05.05-.08c3.87,2.46,8.45,3.89,13.36,3.89,13.78,0,24.99-11.21,24.99-24.99S61.31,3.04,47.53,3.04ZM47.53,49.32c-11.76,0-21.29-9.53-21.29-21.29S35.77,6.73,47.53,6.73s21.29,9.53,21.29,21.29-9.53,21.29-21.29,21.29Z"/>
    <g>
      <g>
        <path id="path1137-2" class="cls-3" d="M60.1,35.9v2.34c-.11,2.23-.17,2.34-.5,2.9-.22.33-.56.67-.89.84-.56.28-.67.28-9.82.28s-9.26,0-9.76-.28c-.61-.28-.89-.61-1.17-1.28-.17-.45-.22-2.06-.22-13.22s0-12.89.17-13.22c.11-.33.39-.78.67-1.12.45-.5.67-.56,1.23-.67.39,0,3.46-.06,6.81,0h6.08l3.63,3.85,3.63,3.79.11,15.79h.06Z"/>
        <path class="cls-4" d="M51.74,42.66h-2.79c-8.87,0-9.37,0-9.93-.28-.73-.33-1.06-.73-1.34-1.51-.17-.5-.22-1.45-.22-13.33s.06-13,.17-13.33c.11-.39.39-.89.78-1.28.5-.56.78-.67,1.51-.78.45-.06,3.85-.06,6.86,0h6.25l7.42,7.87.11,15.57h0v.39l-.06,2.34c-.06,2.29-.06,2.45-.5,3.07-.22.39-.67.78-1.06,1-.56.28-.67.33-7.2.33,0,0,0-.06,0-.06ZM44.09,12.81h-4.18c-.5.06-.61.11-1,.56-.28.33-.56.73-.61.95-.11.61-.11,9.71-.11,13.17,0,10.1,0,12.66.17,13.05.22.61.45.84,1,1.06.39.22,1.23.22,9.6.22,8.87,0,9.15,0,9.65-.22.28-.17.61-.45.78-.73.19-.3.3-1.19.33-2.68v-2.23c.06,0-.06-15.73-.06-15.73l-7.03-7.36h-8.48l-.06-.06h0Z"/>
      </g>
      <g>
        <g>
          <path id="path1145" class="cls-3" d="M75.17,65.69l.17,1.26c.07,1.22.07,1.27-.08,1.59-.07.21-.29.38-.47.51-.32.19-.37.2-5.45.83-4.83.65-5.18.65-5.44.54-.36-.1-.53-.27-.72-.59-.13-.23-.25-1.1-.99-7-.63-4.69-.82-6.83-.8-7.03s.13-.46.31-.63c.21-.27.3-.34.68-.44l7.15-.96s2.26,1.81,2.26,1.81l2.26,1.76,1.13,8.36h0Z"/>
          <path class="cls-4" d="M73.04,69.57l-3.63.49c-4.93.66-5.23.65-5.54.55-.41-.14-.63-.31-.88-.67-.13-.23-.25-.75-1-7.05-.75-5.61-.83-6.88-.8-7.08s.18-.52.34-.74c.25-.33.39-.4.77-.5l7.3-.98s4.67,3.65,4.67,3.65l1.16,8.65h0l.14,1.02c.07,1.22.08,1.32-.12,1.69-.12.21-.33.49-.51.61-.23.13-.32.19-1.91.41v-.05s0,0,0,0ZM63.51,54.76l-1.11.15c-.29.04-.33.09-.54.37-.13.16-.24.38-.27.53-.05.35.59,5.14.79,6.98l.93,6.91c.18.27.3.4.61.51.25.06.69,0,5.39-.58,4.98-.67,5.08-.68,5.35-.82.13-.12.31-.29.38-.45.07-.17.08-.65,0-1.43l-1.28-9.47-4.39-3.4-3.29.44c-1.07.09-1.94.21-2.62.3l.04-.05h0Z"/>
        </g>
        <g>
          <path id="path1149" class="cls-3" d="M65.71,71.79l-.08,1.24c-.09,1.19-.13,1.25-.29,1.52-.13.16-.35.34-.53.42-.33.14-.37.15-5.53-.14-4.85-.23-5.21-.28-5.47-.4-.32-.2-.49-.33-.64-.7-.08-.24-.05-1.12.23-7.07.25-4.76.36-6.84.43-7.05.08-.16.24-.43.41-.6.26-.23.35-.29.75-.3.24-.03,1.93.08,3.81.18l3.42.18,1.91,2.15,1.91,2.15-.34,8.41h0Z"/>
          <path class="cls-4" d="M64.55,75.29c-.39.05-1.38-.01-5.3-.22-5.01-.26-5.25-.28-5.57-.43-.37-.2-.55-.42-.7-.84-.09-.28-.12-.92.22-7.12.28-5.99.39-6.94.47-7.1.07-.21.28-.48.45-.65.31-.29.44-.36.84-.36.24-.03,2.17.05,3.86.17l3.52.21,3.99,4.39-.35,8.71-.1,1.1c-.09,1.19-.12,1.3-.37,1.62-.17.22-.39.4-.62.48l-.34.05h0ZM54.83,58.98c-.19.03-.24.03-.46.26-.17.17-.29.38-.38.49-.11.31-.36,5.36-.44,7-.26,5.35-.32,6.74-.24,6.97.09.33.21.46.53.62.21.12.66.16,5.37.41,5.01.26,5.15.24,5.43.15.15-.02.37-.2.44-.36.11-.15.2-.62.25-1.41l.12-1.3.36-8.27-3.75-4.12-3.32-.19c-2.13-.11-3.62-.2-3.81-.18l-.15.02.04-.1h0Z"/>
        </g>
        <g>
          <path id="path1151" class="cls-3" d="M51.89,73.01l-.64,1.07c-.6,1.02-.64,1.07-.91,1.25-.18.12-.47.16-.67.14-.34,0-.4-.04-4.91-2.49-4.3-2.33-4.57-2.49-4.74-2.71-.24-.31-.26-.51-.27-.9.02-.25.45-1.04,3.24-6.24,2.24-4.19,3.27-6.05,3.45-6.17.13-.12.36-.25.64-.33.33-.09.48-.07.79.04.21.07,1.74.9,3.39,1.81l2.98,1.67.81,2.75.81,2.75-3.97,7.47h0v-.1s-.01,0-.01,0Z"/>
          <path class="cls-4" d="M49.89,75.69l-.24.03c-.26,0-1.93-.84-5.02-2.52-4.4-2.36-4.62-2.53-4.81-2.8-.25-.36-.33-.6-.29-1.04,0-.3.25-.72,3.28-6.35,3-5.52,3.36-6.11,3.49-6.23.13-.16.45-.31.73-.39.38-.1.58-.08.94.02.26.11,1.9.97,3.39,1.81l3.08,1.7,1.7,5.68-4.04,7.63-.55,1.01c-.6,1.02-.64,1.12-1,1.32-.14.07-.33.14-.52.17l-.15-.03h0ZM47.34,56.74l-.24.03c-.24.03-.46.21-.55.27-.21.27-2.62,4.68-3.41,6.12-2.56,4.73-3.24,5.95-3.25,6.2-.05.35.02.49.2.76.18.22.66.5,4.69,2.67,4.46,2.4,4.51,2.44,4.81,2.45.19-.03.39-.05.57-.13.23-.13.28-.14.88-1.15l.68-1.17,3.85-7.26-1.61-5.35-2.93-1.62c-1.81-.99-3.18-1.69-3.34-1.77s-.26-.11-.41-.09c0,0,.05.04.05.04Z"/>
        </g>
      </g>
      <g>
        <path id="path1155-2" class="cls-4" d="M58.74,50.6c-.98.55-1.08.61-1.57.32-.73-.45-3.22-7.2-3.65-8.43-.2-.53-.41-1.55-.51-2.26s-.33-1.91-.37-1.92c-.59-.11-1.28,3.88-1.14,5.6.14,1.34,1.68,8.32,2.51,9.6h0c-.05.15-.49.59-1.01.92-.8.53-.93.65-.69.82.34.24,6.51,2.02,6.68,1.91s1.03-6.55.89-6.89c-.06-.19-.34-.11-1.13.38h0l-.03-.05h0Z"/>
        <path class="cls-3" d="M52.99,55.88c-.49-.16-.87-.29-.97-.36-.24-.16-.26-.34-.26-.46,0-.38.31-.57.96-1.02.36-.21.61-.47.74-.59-.87-1.79-2.31-8.19-2.42-9.49-.17-1.52.39-5.22,1.11-5.9.19-.19.4-.2.51-.16.3.1.39.09.71,2.28.1.7.32,1.69.5,2.17.95,2.69,2.95,7.78,3.47,8.2.18.11.55.01,1.1-.3.83-.48,0,0,0,0,.68-.4,1.06-.57,1.37-.47s0,0,0,0c.15.05.28.17.35.32.05.1.1.33-.34,3.69-.48,3.48-.58,3.53-.75,3.68-.2.1-.26.16-3.59-.77-.72-.24-1.79-.51-2.59-.77l.1-.05h0ZM52.87,54.97c1.17.39,4.71,1.43,5.8,1.66.23-1.09.69-4.74.8-5.96-.1.05-.26.16-.51.29h0c-.94.57-1.28.71-1.97.27-.98-.57-3.72-8.33-3.84-8.62-.19-.56-.43-1.6-.56-2.36-.03-.3-.09-.61-.15-.93-.37,1.13-.65,3.25-.51,4.47.17,1.39,1.71,8.25,2.45,9.41.05.1.1.2.06.31-.14.41-.92,1.03-1.19,1.19-.06.06-.21.14-.33.23l-.05.03h0Z"/>
      </g>
    </g>
  </g>
</svg>