<?xml version="1.0" encoding="UTF-8"?>
<svg id="Calque_2" xmlns="http://www.w3.org/2000/svg" viewBox="0 0 80 80">
  <defs>
    <style>
      .cls-1 {
        fill: none;
      }

      .cls-2 {
        fill: #76b442;
      }

      .cls-3 {
        fill: #a6a7a9;
      }
    </style>
  </defs>
  <g id="OC-Logo">
    <rect class="cls-1" width="80" height="80"/>
    <path id="magnifying-glass" class="cls-2" d="M47.53,3.04c-13.78,0-24.99,11.21-24.99,24.99,0,6.83,2.76,13.03,7.22,17.54-.02.02-.04.04-.06.06l-21.59,26.71c-.99,1.22-.8,3.01.42,3.99s3.01.8,3.99-.42l21.59-26.71s.03-.05.05-.08c3.87,2.46,8.45,3.89,13.36,3.89,13.78,0,24.99-11.21,24.99-24.99S61.31,3.04,47.53,3.04ZM47.53,49.32c-11.76,0-21.29-9.53-21.29-21.29S35.77,6.73,47.53,6.73s21.29,9.53,21.29,21.29-9.53,21.29-21.29,21.29Z"/>
    <g>
      <path class="cls-3" d="M44.74,30.18h-10.27c-1.06,0-1.93-.86-1.93-1.93v-10.27c0-1.06.86-1.93,1.93-1.93h10.27c1.06,0,1.93.86,1.93,1.93v10.27c0,1.06-.86,1.93-1.93,1.93ZM34.47,17.08c-.49,0-.9.4-.9.9v10.27c0,.49.4.9.9.9h10.27c.49,0,.9-.4.9-.9v-10.27c0-.49-.4-.9-.9-.9h-10.27Z"/>
      <path class="cls-3" d="M41.44,24.5c.93-1.14,1.87-2.28,2.81-3.42.18-.21.26-.46.21-.79-.06-.32-.26-.58-.63-.69-.38-.11-.72,0-.97.3-.47.56-.93,1.12-1.39,1.68-.83,1.02-1.67,2.03-2.5,3.05-.08.09-.11.1-.2.02-.68-.57-1.37-1.13-2.05-1.69-.23-.18-.52-.27-.8-.21-.38.09-.62.33-.7.7-.08.38.05.68.34.92l2.81,2.3c.42.34,1.03.28,1.38-.13l1.7-2.05v.02Z"/>
    </g>
    <g>
      <path class="cls-3" d="M60.96,40h-10.27c-1.06,0-1.93-.86-1.93-1.93v-10.27c0-1.06.86-1.93,1.93-1.93h10.27c1.06,0,1.93.86,1.93,1.93v10.27c0,1.06-.86,1.93-1.93,1.93ZM50.69,26.9c-.49,0-.9.4-.9.9v10.27c0,.49.4.9.9.9h10.27c.49,0,.9-.4.9-.9v-10.27c0-.49-.4-.9-.9-.9h-10.27Z"/>
      <path class="cls-3" d="M59.16,34.83l-2-1.92,1.92-2c.31-.33.31-.84-.02-1.16l-.18-.18c-.33-.31-.84-.31-1.16.02l-1.92,2-2-1.92c-.33-.31-.84-.31-1.16.02l-.18.18c-.31.33-.31.84.02,1.16l2,1.92-1.92,2c-.31.33-.31.84.02,1.16l.18.18c.33.31.84.31,1.16-.02l1.92-2,2,1.92c.33.31.84.31,1.16-.02l.18-.18c.31-.33.31-.84-.02-1.16Z"/>
    </g>
  </g>
</svg>